<?xml version="1.0" encoding="UTF-8"?>
<svg id="Layer_2" data-name="Layer 2" xmlns="http://www.w3.org/2000/svg" viewBox="0 0 107.95 11.95">
  <defs>
    <style>
      .cls-1 {
        fill: #3b3b3b;
      }
    </style>
  </defs>
  <g id="Layer_1-2" data-name="Layer 1">
    <g>
      <path class="cls-1" d="M103.81,11.95c-1.45,0-2.65-1.15-2.69-2.61-.03-.97,.73-1.8,1.71-1.83,.32-.01,.62,.1,.85,.32,.23,.22,.37,.51,.38,.83,0,.22-.07,.43-.22,.6-.15,.16-.36,.26-.58,.26-.33,.01-.62-.25-.63-.59,0-.13,.1-.25,.23-.25,.13,0,.25,.1,.25,.23,0,.07,.06,.12,.13,.12,.09,0,.18-.04,.24-.11s.1-.16,.09-.25c0-.19-.09-.36-.22-.49s-.32-.2-.51-.19c-.71,.02-1.27,.62-1.24,1.33,.04,1.22,1.07,2.18,2.29,2.14,2.04-.07,3.65-1.79,3.58-3.83-.07-2.01-.8-3.52-2.18-4.5-3.16-2.25-9.63-1.87-19.23,1.11-10.53,3.28-17.87,5.49-23.69,6.29-6.29,.87-10.32-.03-13.06-2.93-1.69-1.79-2.26-3.78-1.55-5.45C48.29,.88,49.54,.01,50.86,0c1.39-.02,2.6,.88,3.3,2.46,.05,.12,0,.26-.12,.32-.12,.05-.26,0-.32-.12-.62-1.39-1.67-2.18-2.86-2.17-1.13,.01-2.21,.76-2.67,1.86-.63,1.49-.1,3.28,1.46,4.93,5.45,5.76,15.61,2.93,36.26-3.49,9.75-3.03,16.36-3.38,19.65-1.04,1.51,1.07,2.31,2.72,2.39,4.88,.08,2.31-1.74,4.25-4.04,4.33-.03,0-.06,0-.09,0Z"/>
      <path class="cls-1" d="M4.14,11.95s-.06,0-.09,0C1.74,11.87-.08,9.92,0,7.62,.08,5.45,.88,3.81,2.39,2.73,5.68,.39,12.3,.75,22.04,3.78c20.65,6.42,30.81,9.26,36.26,3.49,1.56-1.65,2.09-3.44,1.46-4.93-.47-1.1-1.54-1.85-2.67-1.86-1.19-.01-2.23,.78-2.86,2.17-.05,.12-.2,.18-.32,.12-.12-.05-.18-.2-.12-.32C54.49,.88,55.7-.01,57.09,0c1.32,.01,2.57,.88,3.11,2.15,.71,1.67,.15,3.66-1.55,5.45-2.74,2.9-6.77,3.81-13.06,2.93-5.82-.81-13.16-3.02-23.69-6.29C12.3,1.26,5.83,.88,2.67,3.13,1.29,4.11,.55,5.62,.49,7.63c-.07,2.04,1.54,3.76,3.58,3.83,1.22,.04,2.25-.92,2.29-2.14,.02-.71-.53-1.3-1.24-1.33-.19,0-.37,.06-.51,.19-.14,.13-.22,.3-.22,.49,0,.09,.03,.18,.09,.25s.15,.11,.24,.11c.07,0,.13-.05,.13-.12,0-.13,.12-.23,.25-.23,.13,0,.24,.12,.23,.25-.01,.34-.3,.6-.63,.59-.22,0-.43-.1-.58-.26-.15-.16-.23-.37-.22-.6,.01-.32,.14-.61,.38-.83,.23-.22,.53-.33,.85-.32,.97,.03,1.74,.85,1.71,1.83-.05,1.46-1.25,2.61-2.69,2.61Z"/>
    </g>
  </g>
</svg>